<?xml version="1.0" encoding="UTF-8"?>
<svg width="91px" height="78px" viewBox="0 0 91 78" version="1.1" xmlns="http://www.w3.org/2000/svg" xmlns:xlink="http://www.w3.org/1999/xlink">
    <!-- Generator: Sketch Beta 51.3 (57541) - http://www.bohemiancoding.com/sketch -->
    <title>icon_down</title>
    <desc>Created with Sketch Beta.</desc>
    <defs></defs>
    <g id="Page-1" stroke="none" stroke-width="1" fill="none" fill-rule="evenodd">
        <g id="Desktop-HD" transform="translate(-394.000000, -1487.000000)" fill="#FFFFFF" fill-rule="nonzero">
            <g id="Vantagens" transform="translate(0.000000, 1161.000000)">
                <g id="Row" transform="translate(319.000000, 310.000000)">
                    <g id="Item-1" transform="translate(0.000000, 16.000000)">
                        <g id="icon_down" transform="translate(75.000000, 0.000000)">
                            <path d="M76.4212734,78 C78.9487305,78 81,75.8151417 81,73.1230841 L81,61.642824 L80.6703317,61.8769159 C79.827846,62.4816535 78.8570644,62.80353 77.8497445,62.80353 C76.5494777,62.80353 75.3132215,62.276823 74.3607548,61.3111937 C73.4541669,60.3943335 72.9230347,59.1847608 72.8223027,57.8679935 C70.5236903,57.6436554 68.243576,57.3510404 66,57 L66,73.1230841 C66,75.8151417 68.051178,78 70.5787266,78 L76.4212734,78 Z" id="Shape"></path>
                            <path d="M55.4240111,78 C57.9500485,78 60,75.8477378 60,73.1958433 L60,56.2179535 C59.8169604,56.1796163 59.6339209,56.141087 59.4508813,56.1026537 C57.117127,55.6031175 54.7833727,55.0266187 52.5046217,54.392374 C49.95122,53.6814548 47.4344261,52.8742604 45,52 L45,73.1863311 C45,75.8382256 47.0499515,77.9904878 49.5759889,77.9904878 L55.4240111,77.9904878 L55.4240111,78 Z" id="Shape"></path>
                            <path d="M33.4212454,77.9999057 C35.9488095,77.9999057 38,75.8866981 38,73.2829245 L38,50.1319811 C37.6336996,49.9810377 37.2766484,49.8206604 36.9194139,49.660283 C32.459707,47.6980189 28.2472527,45.4245283 24.3736264,42.915 C23.9065934,42.6132075 23.4487179,42.3113208 23,42 L23,73.2830189 C23,75.8867925 25.0512821,78 27.5787546,78 L33.4212454,78 L33.4212454,77.9999057 Z" id="Shape"></path>
                            <path d="M6.57875458,78 L12.4212454,78 C14.9487179,78 17,75.9025585 17,73.3182109 L17,37.7553408 C16.3864469,37.240344 15.7820513,36.7253472 15.1959707,36.2008932 C11.2765568,32.6990086 7.94322344,28.8692114 5.27838828,24.8147821 C4.03296703,22.9139757 2.94322344,20.975715 2,19 L2,73.3181173 C2,75.9025585 4.05128205,78 6.57875458,78 Z" id="Shape"></path>
                            <path d="M2.0183443,12.7216167 C2.32960083,13.6193749 2.66915341,14.5171332 3.04643405,15.3957902 C3.24450639,15.85422 3.44257873,16.3222003 3.6595151,16.7806301 C3.66894711,16.8092819 3.68781115,16.8379338 3.69724316,16.8665857 C4.16884396,17.888502 4.69703686,18.9008677 5.26295783,19.9036828 C5.82887879,20.9064979 6.43252782,21.8997623 7.09276894,22.8834762 C7.91335434,24.1155061 8.79053183,25.3188842 9.73373344,26.5031611 C9.92237376,26.7419266 10.1110141,26.9711415 10.3090864,27.209907 C10.6957991,27.6778873 11.0919438,28.1458677 11.4975204,28.6042975 C11.7050248,28.8334168 11.9030971,29.0627272 12.1106015,29.2919421 C12.9406189,30.2088016 13.8083644,31.1065599 14.7138379,31.9851214 C15.3929431,32.6441142 16.1003443,33.2935563 16.8171775,33.9334478 C18.7413088,35.6334582 20.8069203,37.2666142 23.0328761,38.8233652 C23.2686765,38.9857257 23.5044769,39.1576369 23.7497093,39.3199974 C23.9949417,39.4822625 24.2307421,39.644623 24.4759745,39.8165342 C24.9664394,40.1412552 25.4569042,40.4660718 25.9568011,40.7812423 C26.6830663,41.2491271 27.4187635,41.6981018 28.1733248,42.1469809 C29.1731185,42.7391193 30.1917763,43.3217071 31.219866,43.8756431 C31.4745305,44.0189024 31.7386269,44.1526111 32.0027234,44.2958704 C33.3043416,44.983515 34.6436878,45.6520584 36.0018982,46.2823993 C36.8223892,46.6644241 37.6429746,47.0368983 38.4825184,47.3998218 C40.5008755,48.2689282 42.5665813,49.0902815 44.6981226,49.8543311 C45.0377695,49.9784892 45.3867541,50.0930966 45.7262124,50.2172547 C48.1408085,51.0481586 50.6214287,51.8122082 53.158641,52.4998528 C54.309347,52.8053772 55.469485,53.1015419 56.629623,53.3784143 C56.9221098,53.4452687 57.214408,53.512123 57.5068948,53.5790729 C58.3840723,53.7796359 59.2612498,53.9706483 60.1478593,54.1521101 C62.1945124,54.5722418 64.269556,54.9448115 66.3634635,55.259982 L66.3729899,55.259982 C66.7407442,55.3173812 67.0991608,55.3651343 67.4671037,55.4223425 C67.5802879,55.4414437 67.6840401,55.4509944 67.7972243,55.4700956 C68.0707528,55.5082981 68.3442812,55.5465006 68.6178097,55.584703 C68.7309939,55.6038043 68.8347461,55.6133549 68.9479302,55.6324561 C69.2685245,55.6705631 69.5893073,55.7183162 69.9099959,55.7566142 C69.966588,55.7661648 70.0137481,55.7661648 70.0702458,55.7757154 C70.4663905,55.8234685 70.8625352,55.8712216 71.2587742,55.9189747 C71.2776382,55.9189747 71.2870702,55.9189747 71.3059343,55.9285254 C71.6832149,55.9667278 72.0509692,56.0144809 72.4282499,56.0526834 C72.4849363,56.0623295 72.541434,56.0623295 72.5981205,56.0717847 C72.9565371,56.1099871 73.3242914,56.1481896 73.6828023,56.176937 C73.7110984,56.176937 73.7393944,56.1864876 73.7675961,56.1864876 C74.5881815,56.2628926 75.3993349,56.3297469 76.2199203,56.3966012 L76.2199203,58.612345 C76.2199203,60.0161906 77.3612886,61 78.5874507,61 C79.0306611,61 79.4834922,60.8662913 79.9079329,60.5797727 L81.8319699,59.2522366 L89.9623677,53.665124 C91.33001,52.7291632 91.3488741,50.7044318 90.0000958,49.7398192 L79.9454723,42.5482024 C79.5210316,42.2425826 79.0494308,42.1087784 78.596694,42.1087784 C77.3705319,42.1087784 76.229258,43.0925878 76.229258,44.4964334 L76.229258,46.8076834 C72.899662,46.540266 69.6173204,46.13914 66.3822332,45.6043053 C64.2883257,45.2603875 62.2132821,44.8593569 60.1665347,44.4008317 C58.629116,44.0570094 57.1106558,43.6845352 55.6015332,43.2738585 C51.8004307,42.2519422 48.1691046,41.0485641 44.7075547,39.6637242 C42.566487,38.8137191 40.4914435,37.8968596 38.4918561,36.9131457 C35.8604179,35.623812 33.3609337,34.2198709 30.9934033,32.710873 C28.0694783,30.838856 25.4096498,28.8524226 23.0422138,26.7512862 C19.9485125,24.0198089 17.3358441,20.8490031 14.8457918,17.5635899 C11.3559459,12.9601911 10.0543277,6.13149794 9.58272686,2.49271178 C9.40351856,1.0601188 8.1962205,0 6.78141809,0 L2.82940336,0 C1.17880055,0 -0.122817662,1.42304236 0.00923056279,3.08485021 C0.2073029,5.62531509 0.660039671,8.14667873 1.36744088,10.6202893 C1.55617552,11.317771 1.7825439,12.0244214 2.0183443,12.7216167 Z" id="Shape"></path>
                        </g>
                    </g>
                </g>
            </g>
        </g>
    </g>
</svg>