<?xml version="1.0" encoding="UTF-8"?>
<svg width="33px" height="25px" viewBox="0 0 33 25" version="1.1" xmlns="http://www.w3.org/2000/svg" xmlns:xlink="http://www.w3.org/1999/xlink">
    <!-- Generator: Sketch 51.1 (57501) - http://www.bohemiancoding.com/sketch -->
    <title>icon_email</title>
    <desc>Created with Sketch.</desc>
    <defs></defs>
    <g id="Page-1" stroke="none" stroke-width="1" fill="none" fill-rule="evenodd">
        <g id="Desktop-HD" transform="translate(-944.000000, -2471.000000)" fill="#FFFFFF" fill-rule="nonzero">
            <g id="Contato" transform="translate(157.000000, 2291.000000)">
                <g id="BTN---WhatsApp" transform="translate(761.000000, 164.000000)">
                    <g id="icon_email" transform="translate(26.000000, 16.000000)">
                        <path d="M33,20.8332188 C33,21.5639667 32.7965091,22.2414044 32.4705293,22.8374342 L22.0510767,11.0617931 L32.357562,1.95344703 C32.7584906,2.5961232 33,3.35105301 33,4.16684986 L33,20.8332188 Z M16.500034,13.1999022 L30.8411743,0.524995328 C30.2526695,0.199569671 29.589964,0 28.8750935,0 L4.1249745,0 C3.40921991,0 2.74631037,0.199569671 2.16018598,0.524995328 L16.500034,13.1999022 Z M20.4982348,12.4330875 L17.1786542,15.368857 C16.984481,15.5397106 16.7426996,15.6250343 16.500034,15.6250343 C16.2572324,15.6250343 16.015451,15.5397106 15.8212778,15.368857 L12.5009491,12.4329501 L1.94968993,24.35911 C2.58213025,24.7598981 3.32332119,25 4.12490648,25 L28.8750935,25 C29.6765428,25 30.4180738,24.7598981 31.0503101,24.35911 L20.4982348,12.4330875 Z M0.642574055,1.95337833 C0.241713399,2.5960545 0,3.35098431 0,4.16684986 L0,20.8332875 C0,21.5640354 0.202538689,22.2414731 0.52974273,22.8375029 L10.9479711,11.0598008 L0.642574055,1.95337833 Z" id="Shape"></path>
                    </g>
                </g>
            </g>
        </g>
    </g>
</svg>