<?xml version="1.0" encoding="UTF-8"?>
<svg width="94px" height="96px" viewBox="0 0 94 96" version="1.1" xmlns="http://www.w3.org/2000/svg" xmlns:xlink="http://www.w3.org/1999/xlink">
    <!-- Generator: Sketch Beta 51.3 (57541) - http://www.bohemiancoding.com/sketch -->
    <title>icon_brazil</title>
    <desc>Created with Sketch Beta.</desc>
    <defs></defs>
    <g id="Page-1" stroke="none" stroke-width="1" fill="none" fill-rule="evenodd">
        <g id="Desktop-HD" transform="translate(-961.000000, -1652.000000)" fill="#FFFFFF" fill-rule="nonzero">
            <g id="Vantagens" transform="translate(0.000000, 1161.000000)">
                <g id="Row" transform="translate(319.000000, 488.000000)">
                    <g id="Item-3" transform="translate(570.000000, 3.000000)">
                        <g id="icon_brazil" transform="translate(72.000000, 0.000000)">
                            <path d="M0.959853711,31.9610835 C0.919767303,32.4818422 1.16028575,32.8623966 1.44089061,33.2629801 C1.64132265,33.5634178 1.8818411,33.9039139 1.92192751,34.2444099 C1.98205712,34.8052269 2.28270519,34.9454312 2.74369888,35.0455771 C3.26482219,35.1657521 3.68572948,35.4461606 3.82603191,36.0069776 C3.96633434,36.5277363 4.2469392,36.6679405 4.7680625,36.4676488 C5.79026592,36.0870944 6.81246933,35.6664816 7.83467274,35.265898 C7.81462954,35.3860731 7.77454313,35.5663357 7.75449993,35.7465983 C7.67432711,36.4676488 7.55406788,37.1886992 7.57411109,37.8897205 C7.59415429,38.6308001 8.05514799,39.0914712 8.73661693,39.0914712 C10.0594684,39.0914712 11.3622767,39.071442 12.6851282,39.0313837 C13.3265107,39.0113545 13.8877204,38.7710043 14.3286709,38.2702749 C14.3888005,38.2101873 14.4689733,38.1100414 14.5291029,38.1300706 C15.3107879,38.2702749 15.7316952,37.729487 16.2127321,37.2688159 C16.7538986,36.7480573 17.3752379,36.387532 18.1769661,36.4075612 C18.6780462,36.4275904 19.1991695,36.267357 19.7804224,36.1872403 C19.7804224,36.1872403 19.8605952,36.2873861 19.9207249,36.4075612 C20.2013297,36.8482032 20.3215889,37.2487867 19.9808545,37.7495162 C19.8205088,38.0098955 19.9006817,38.4305083 19.8806384,38.7910335 C19.8605952,39.0514128 19.9207249,39.3518505 19.840552,39.5922007 C19.7202928,39.9727551 19.7002496,40.3132511 19.8605952,40.6938055 C20.3015457,41.6552061 20.9830147,42.4163149 21.7847428,43.0772778 C22.2256933,43.437803 22.7067302,43.5579781 23.26794,43.4578322 C23.4483288,43.437803 23.668804,43.5379489 23.8491929,43.6380948 C24.0897113,43.778299 24.2701002,44.0587076 24.5106186,44.1187951 C24.8713963,44.218941 25.1119147,44.3791744 25.33239,44.6395537 C25.633038,45.000079 26.0138589,45.2404291 26.4948958,45.1603124 C26.8556735,45.1002249 27.0160191,45.2003707 27.1162352,45.560896 C27.3367104,46.3220048 27.7977041,46.5423257 28.5793891,46.3620631 C28.7998643,46.3019756 29.1005124,46.3620631 29.3209876,46.462209 C29.8220677,46.68253 30.2830614,46.9829677 30.7640983,47.2032886 C31.0847896,47.3434929 31.2451352,47.5437847 31.2852216,47.8642515 C31.3453512,48.3249227 31.3854376,48.7655646 31.3854376,49.2262357 C31.3653944,49.8471402 31.4455673,50.488074 30.9044007,50.9888034 C30.8242279,51.048891 30.7841415,51.2093247 30.7841415,51.3094706 C30.8442711,51.8302292 30.9444872,52.3309587 31.3653944,52.6912836 C32.0669066,53.292159 32.888678,53.6526842 33.8106653,53.7328009 C34.2115294,53.7728593 34.6324367,53.7328009 35.053344,53.7528301 C35.5945105,53.7730596 35.7748994,54.0332386 35.6345969,54.5339681 C35.5945105,54.6541432 35.5544241,54.7943474 35.4942945,54.9145225 C34.9731712,55.976069 35.2938625,56.6770902 36.3962387,57.0175863 C36.6167139,57.0975027 36.9374052,57.3380531 36.9374052,57.4980863 C36.9774916,58.3393118 37.3382693,59.2406248 36.6768435,60.0219631 C36.5966707,60.1018795 36.5164979,60.2020254 36.4964547,60.3224008 C36.4563683,60.5427218 36.3761955,60.8231303 36.4563683,61.0031926 C36.5565843,61.2237138 36.5565843,61.3436886 36.4162819,61.5241515 C36.1156338,61.9247351 35.9152018,62.3253187 35.8751154,62.8460773 C35.8149858,63.9076238 35.6746833,64.9691703 35.5945105,66.0307168 C35.5544241,66.5514754 35.5343809,67.0922633 35.5544241,67.6128216 C35.5744673,68.0534635 35.8149858,68.4342182 36.2559363,68.5343641 C36.8572324,68.6545392 37.4785717,68.7346559 38.0798678,68.7346559 C39.7033674,68.7346559 40.9059596,70.1765565 40.6253548,71.7788908 C40.5451819,72.1997039 40.5652252,72.6601747 40.5852684,73.1010169 C40.6053116,73.6618339 40.7857004,73.7818087 41.3469101,73.6816628 C41.6074718,73.6418047 41.8680334,73.5614877 42.1285951,73.5416589 C42.7699776,73.5016005 43.2309713,73.9021841 43.1507985,74.5431178 C43.0706257,75.2641682 42.9303232,76.0052479 42.6898048,76.6860396 C42.4292431,77.4473487 42.3691135,77.4271193 43.0305393,77.8879907 C43.691965,78.3486618 43.9525267,78.9895955 43.8523106,79.7705332 C43.792181,80.2914921 43.6518786,80.7922216 43.6318354,81.31278 C43.6117922,82.1139471 43.0706257,82.5345599 42.4693295,82.7348517 C40.84583,83.2355811 39.6031514,84.2572695 38.4005591,85.3588744 C37.6589605,86.0396662 37.017578,86.8009753 36.3361091,87.5418546 C35.9552882,87.9424382 35.935245,88.2030178 36.2358931,88.6835178 C36.3160659,88.823722 36.3962387,88.9639263 36.4964547,89.0841014 C36.9774916,89.7052062 37.5988309,90.2257646 37.3983989,91.167136 C37.3182261,91.5474901 37.5988309,91.727953 37.9796518,91.6077779 C38.1399974,91.5677195 38.2802999,91.4874025 38.4206023,91.3872566 C38.7412936,91.1669357 39.0018552,91.2871107 39.2022873,91.5274609 C39.9839722,92.5088907 40.8658732,93.3501162 41.8479902,94.0911958 C42.2889407,94.4118629 42.6296752,94.8322754 42.709848,95.3730632 C42.7699776,95.8337344 43.0505825,95.8737927 43.4113601,95.8337344 C43.7520946,95.793676 44.0727859,95.6935301 44.4335636,95.6134134 C44.6540388,96.0740845 44.9947733,96.134172 45.3154645,95.7335885 C45.455767,95.5533258 45.6161126,95.3530341 45.656199,95.1327131 C45.8766743,94.2314 46.2975815,93.4903204 46.9790505,92.8493867 C47.6402758,92.2284822 48.2217291,91.5274609 48.8631117,90.8264396 C48.9031981,90.866498 48.9833709,90.9065564 49.0433001,90.9666439 C49.5443802,91.4874025 50.1256331,91.4471439 50.5066544,90.8462685 C50.7271297,90.4857433 50.9474045,90.1252181 51.1279938,89.7246345 C51.448685,89.0436424 51.9096787,88.542913 52.5109748,88.102271 C52.9318821,87.7816039 53.2924594,87.3810203 53.5931074,86.9606078 C54.0741443,86.2595866 54.23449,85.3983319 54.334706,84.5771355 C54.434922,83.8560851 54.4750084,83.1150055 54.5551812,82.3941553 C54.5754249,82.1137468 54.635354,81.833138 54.6756409,81.5727587 C54.8159433,80.6714457 55.5775851,79.9704244 55.4571254,78.9689655 C55.6575575,79.0691113 55.7978599,79.1692572 55.9582055,79.249374 C56.2388104,79.369549 56.4592856,79.3292904 56.5995881,79.0090238 C56.9002361,78.2879734 57.5416187,77.9474773 58.223288,77.7471855 C58.7644545,77.5669229 59.2254482,77.3263725 59.6663987,76.9660476 C60.1674788,76.5454348 60.6886021,76.1448512 61.4302007,76.1849096 C62.5123333,76.2249679 63.5144935,75.9645886 64.2763357,75.1233631 C64.9377614,74.4023127 65.6392736,74.2821376 66.4810881,74.7628379 C67.0220542,75.0632756 67.6233504,75.1033339 68.2448901,75.0232172 C69.4474824,74.8431549 70.489729,74.322196 71.471846,73.6414042 C72.2334877,73.1006163 72.9149567,72.4795115 73.3158208,71.5984279 C73.5763824,71.0175817 73.9772465,70.5569106 74.5985858,70.3165605 C74.7990179,70.236644 74.9994499,70.156327 75.1395519,70.0161228 C75.9212369,69.0747514 76.7031223,68.1133508 77.464764,67.1321213 C77.8453845,66.6313918 77.6651961,66.0305165 77.7052825,65.4694992 C77.7253257,64.9487405 77.7852549,64.3881238 78.2462486,64.0876861 C79.0479767,63.5468983 79.4488408,62.76556 79.7697325,61.9245348 C79.9100349,61.5840388 79.9100349,61.1834552 79.9701646,60.82293 C79.9499209,60.7626421 80.0904238,60.7227841 80.110467,60.6624963 C80.1904394,60.4223464 80.250569,60.1617668 80.2906554,59.9013875 C80.4309578,59.180337 80.5712602,58.4793158 80.6915195,57.7582653 C80.8318219,56.8970106 80.9520811,56.0357559 81.0723403,55.1747015 C81.1925996,54.3735344 81.232686,53.5723672 81.3930316,52.7712001 C81.4932476,52.2103831 81.8141393,51.7096536 82.3951918,51.529391 C84.279253,50.8884573 85.5820613,49.6666773 86.143271,47.7639054 C86.4238759,46.8425631 86.9650424,46.4019212 87.8669866,46.2416878 C88.8893904,46.0614251 89.831421,45.7008999 90.4327171,44.7795577 C90.5930628,44.5191784 90.6932788,44.2187407 90.8937108,43.9984197 C91.4148341,43.4376027 91.9758434,42.9168441 92.5172104,42.3760562 C93.7999754,41.114218 94.2810123,39.6320587 93.8402623,37.869491 C93.6797162,37.2686156 93.5997438,36.6677403 93.4995278,36.0468357 C93.419355,35.5461062 93.4594414,35.0053184 93.319139,34.5246181 C92.9984477,33.4630716 92.3971516,32.6218461 91.1745161,32.4215543 C90.8339821,32.3614668 90.5130904,32.2613209 90.1723559,32.2212625 C89.4309578,32.1010875 88.809418,31.7806206 88.3484243,31.2198036 C87.5466962,30.1983155 86.7650112,29.136769 86.0234126,28.0752225 C85.5423757,27.3942304 85.1815981,26.6531508 84.1992806,26.5730341 C84.0790214,26.5730341 83.938719,26.3927715 83.8585462,26.2525672 C83.4576821,25.551546 82.856386,25.1910208 82.0749014,25.110904 C81.6537937,25.0708457 81.1930004,25.0307873 80.8121796,25.1509624 C79.7098033,25.5114876 78.7076431,25.1910208 77.7255261,24.8104664 C77.324662,24.6702621 76.9237979,24.4098828 76.6431931,24.1094451 C76.2824154,23.7288907 75.8414649,23.5486281 75.3606285,23.4885406 C74.4384406,23.3483363 73.5767833,23.6087156 72.7347683,23.9291825 C72.313861,24.0894159 71.8729105,24.2496494 71.392074,24.4098828 C71.6125493,23.5486281 71.8129813,22.7674901 72.0332561,21.9863521 C72.1334722,21.6057977 72.0935862,21.405506 71.6927221,21.2452725 C71.091426,20.9848932 70.5300158,20.6443972 69.9688061,20.3039011 C69.6884017,20.1236385 69.467726,19.8632592 69.1670779,19.6829966 C68.1047881,19.0420628 66.9422823,18.6815376 65.7196468,18.4411875 C64.3567089,18.1808082 63.0741443,18.3810999 61.9515244,19.2623838 C61.3903147,19.7030258 60.829105,20.1236385 60.2879385,20.5242221 C60.1075497,20.1036093 59.846988,19.7430841 59.5262967,19.4626756 C59.7267288,19.4426464 59.947204,19.3825589 60.1476361,19.3024422 C60.5485001,19.1422087 60.9493642,18.9619461 61.2900987,18.721596 C61.8913948,18.2609249 62.4926909,17.7802246 63.0338575,17.2394367 C63.3545487,16.9189699 63.2743759,16.6585906 62.8534686,16.4582988 C61.6909628,15.8974818 60.4482841,15.6771608 59.1657195,15.6771608 C58.5644234,15.6771608 58.0631428,15.9175109 57.6021491,16.1979194 C57.1213127,16.4983571 56.7002049,16.8588824 56.1991248,17.1392909 C55.7982608,17.3596118 55.3773535,17.5799328 54.7760573,17.4397285 C54.9562457,17.0591741 55.0564618,16.6786197 55.2771374,16.3781821 C56.1790816,15.136373 57.3015011,14.1549432 58.6443957,13.4138636 C59.0252166,13.2135718 59.3459079,12.9531925 59.2659355,12.452463 C59.2058059,12.0919378 59.3459079,11.8515876 59.6267132,11.6512958 C59.8471884,11.4910624 60.0476205,11.3107998 60.3282253,11.0704497 C60.0676637,10.9302454 59.9071176,10.8100703 59.7066856,10.7499828 C59.3260651,10.6097785 58.8849142,10.549691 58.524337,10.3694284 C58.2838185,10.2492533 58.0433001,10.0089032 57.9831704,9.76855303 C57.8627108,9.30788192 57.9029976,8.80715244 57.7827384,8.32645215 C57.5422199,7.22484731 57.2415719,6.12324248 56.9810102,5.12178353 C56.4799301,4.78128749 56.1590384,4.98157928 55.878634,5.30204614 C55.5980291,5.60248382 55.2773379,5.86286315 55.0167762,6.18333001 C54.8963166,6.34356344 54.7961005,6.58391359 54.8363874,6.78420538 C54.9165602,7.38508074 54.9165602,7.48522664 54.3553505,7.62543089 C53.8542704,7.76563514 53.5536223,8.06607283 53.3932767,8.50671476 C53.2730175,8.82718162 53.032499,8.98741505 52.7120082,9.06753177 C51.810064,9.28785274 50.928163,9.2277652 50.0262188,9.10759013 C49.3449503,9.00744423 48.7234105,8.8472108 48.3225465,8.22630626 C48.2425741,8.086102 48.042142,7.98595611 47.9016392,7.96592693 C47.3203863,7.86578104 46.7391333,7.8056935 46.1578804,7.70554761 C45.7369731,7.62543089 45.4964547,7.76563514 45.2559362,8.12616036 C44.8350289,8.80715244 43.8328687,9.56826124 42.7304925,9.12761931 C42.0289804,8.8472108 41.2873818,8.9473567 40.5658264,9.18770684 C39.8843575,9.40802781 39.1828454,9.56826124 38.4813332,9.68843631 C37.9802531,9.78858221 37.479173,9.70846549 37.0783089,9.32791109 C36.2164511,8.52674394 35.715371,7.525285 35.5750686,6.34356344 C35.4548094,5.36213368 35.8356303,4.52090817 36.3367104,3.73977019 C36.8778769,2.91857386 36.8578337,2.81842796 36.1162351,2.23758177 C35.7554574,1.95717327 35.615155,1.63670641 35.715371,1.19606447 C35.7554574,1.01580186 35.8757167,0.835539253 35.8356303,0.695335001 C35.7955439,0.475014033 35.6953278,0.194605529 35.5349822,0.114488813 C35.0739885,-0.125861333 34.7132108,0.0143429191 34.3524332,0.515072391 C33.8513531,1.17603529 33.4104026,1.91711491 32.5084584,2.05731916 C31.8670758,2.15746506 31.2056501,2.2175526 30.5442244,2.27764013 C30.3838787,2.29766931 30.2235331,2.23758177 30.0631875,2.25761095 C29.5621074,2.27764013 29.3015457,2.61813617 29.0610273,2.99869057 C28.64012,3.69971183 28.4597311,3.71974101 27.858435,3.158924 C27.7983054,3.11886564 27.758219,3.03874893 27.6980894,3.01871975 C27.1569229,2.73831125 26.6357995,2.45790274 26.094633,2.23758177 C25.9543306,2.17749424 25.6536825,2.31769849 25.5534665,2.45790274 C25.1926888,2.95863221 25.1926888,3.5394784 25.3329913,4.12032459 C25.5334233,4.88143339 25.894201,5.46227957 26.675886,5.82280479 C27.3573549,6.14327165 27.3172685,6.96446799 26.675886,7.32499321 C26.4754539,7.44516828 26.2349355,7.50525582 26.0345034,7.62543089 C24.6715655,8.40656887 23.3086277,9.18770684 21.9456898,9.988874 C21.6650849,10.1691366 21.4045233,10.1691366 21.1239184,10.0489615 C20.6027951,9.80861139 20.101715,9.78858221 19.6206781,10.1491074 C19.5605485,10.209195 19.3801596,10.209195 19.2999868,10.1491074 C18.6786475,9.72849467 18.1775674,9.2277652 18.037265,8.42659805 C17.9170057,7.72557679 17.5762713,7.20481813 16.8146295,7.02455552 C16.2935062,6.90438045 15.8325125,7.02455552 15.3514756,7.18478896 C14.6700067,7.40510992 14.0085809,7.4251391 13.2870256,7.32499321 C12.7859455,7.24487649 12.2648222,7.26490567 11.7637421,7.32499321 C11.4230076,7.36505157 11.2025323,7.64546007 11.1624459,8.00598529 C11.1223595,8.38653969 11.362878,8.60686066 11.6835692,8.74706491 C11.9040445,8.8472108 12.1445629,8.90729834 12.3049086,9.06753177 C12.4652542,9.20773602 12.6055566,9.44808617 12.6055566,9.62834878 C12.6055566,9.76855303 12.3850814,9.96884482 12.2247358,10.0289324 C11.9842173,10.1090491 11.7036124,10.1290782 11.4430508,10.1290782 C10.5010202,10.1691366 10.0600697,10.7499828 10.4408906,11.6112375 C10.681409,12.1520253 11.0221435,12.672784 11.4029644,13.1334551 C12.1044765,14.0347681 12.1846493,14.8759936 11.5432668,15.7973359 C11.1824891,16.3180945 10.8417547,16.8588824 11.0421867,17.5599036 C11.0822731,17.7001079 11.0221435,17.8803705 10.9419707,18.0205747 C10.6613658,18.6214501 10.4609338,19.2423546 10.480977,19.9433759 C10.480977,20.1036093 10.4208474,20.2838719 10.3607178,20.4441054 C10.2605017,20.8046306 10.0801129,21.1651558 10.0600697,21.525681 C9.99994009,22.4069649 9.61911921,22.7274318 8.79734784,22.4670524 C8.01566288,22.2066731 7.33419393,22.3268482 6.63268179,22.7074026 C6.39216334,22.8275777 6.09151527,22.8476068 5.81091042,22.867636 C5.49021915,22.867636 5.16952788,22.8075485 4.82879341,22.7674901 C4.7486206,23.2081321 4.44797253,23.3883947 4.04710845,23.4484822 C3.94689243,23.4685114 3.86671961,23.5285989 3.7865468,23.5886865 C2.50378173,24.4699703 2.04278803,25.8319545 1.70205356,27.2540262 C1.60183754,27.6345806 1.58179434,27.9951058 1.12080064,28.2154268 C0.820152578,28.355631 0.559590924,28.6760979 0.359158882,28.9765356 C-0.141921222,29.7176152 -0.121878018,30.258403 0.439331699,30.9594243 C0.799508078,31.1398872 0.99994012,31.5002121 0.959853711,31.9610835 Z" id="Shape"></path>
                        </g>
                    </g>
                </g>
            </g>
        </g>
    </g>
</svg>