<?xml version="1.0" encoding="UTF-8"?>
<svg width="90px" height="90px" viewBox="0 0 90 90" version="1.1" xmlns="http://www.w3.org/2000/svg" xmlns:xlink="http://www.w3.org/1999/xlink">
    <!-- Generator: Sketch Beta 51.3 (57541) - http://www.bohemiancoding.com/sketch -->
    <title>icon_fix</title>
    <desc>Created with Sketch Beta.</desc>
    <defs></defs>
    <g id="Page-1" stroke="none" stroke-width="1" fill="none" fill-rule="evenodd">
        <g id="Desktop-HD" transform="translate(-964.000000, -1286.000000)" fill="#FFFFFF" fill-rule="nonzero">
            <g id="Vantagens" transform="translate(0.000000, 1161.000000)">
                <g id="Row" transform="translate(319.000000, 125.000000)">
                    <g id="Item-3" transform="translate(570.000000, 0.000000)">
                        <g id="icon_fix" transform="translate(75.000000, 0.000000)">
                            <path d="M84,50.8928571 C84,46.5801214 80.4819263,43.0714286 76.1576601,43.0714286 L64.5103911,43.0714286 C65.9533816,39.1803548 66.8482798,34.5585857 67.371451,31.0575405 C67.8998504,27.5232976 66.8627445,23.9457762 64.5260758,21.2419952 C62.196378,18.5462095 58.8133668,17 55.2447536,17 C53.801066,17 52.6306403,18.1673048 52.6306403,19.6071429 C52.6306403,25.9054786 49.0013797,35.4135548 44.7659933,37.5314238 C39.9985477,39.9148738 30.6198063,42.5562571 28.7517609,43.0714286 C27.5855178,43.0714286 3.74131897,43.0714286 2.61411331,43.0714286 C1.17042566,43.0714286 0,44.2387333 0,45.6785714 L0,82.1785714 C-0.00017427422,83.6184095 1.17025139,84.7857143 2.61393903,84.7857143 L10.456279,84.7857143 L10.456279,87.3928571 C10.456279,88.8326952 11.6267046,90 13.0703923,90 L23.8753939,90 C27.0682719,90 29.819539,88.0861833 31.0418984,85.3492048 L49.3825174,89.9221333 C49.5899037,89.9737548 49.8028668,90 50.016527,90 L65.7012068,90 C70.0254731,90 73.5435468,86.4913071 73.5435468,82.1785714 C73.5435468,81.1614381 73.3478368,80.1891476 72.9921431,79.2969833 C76.3186895,78.3914357 78.7717734,75.3509857 78.7717734,71.75 C78.7717734,70.7328667 78.5760634,69.7605762 78.2203698,68.8684119 C81.5469161,67.9628643 84,64.9224143 84,61.3214286 C84,59.3200119 83.24243,57.4918833 81.9982863,56.1071429 C83.24243,54.7224024 84,52.8942738 84,50.8928571 Z M10.4561047,79.5714286 L5.22787807,79.5714286 L5.22787807,48.2857143 L10.4561047,48.2857143 L10.4561047,79.5714286 Z M26.489333,82.1785714 C26.489333,83.61615 25.3166417,84.7857143 23.8752197,84.7857143 L15.6843313,84.7857143 L15.6843313,48.2857143 L26.489333,48.2857143 L26.489333,82.1785714 Z M60.4729802,58.7142857 L76.1576601,58.7142857 C77.5990822,58.7142857 78.7717734,59.88385 78.7717734,61.3214286 C78.7717734,62.7590071 77.5990822,63.9285714 76.1576601,63.9285714 C74.1866186,63.9285714 62.0839711,63.9285714 60.4729802,63.9285714 C59.0292926,63.9285714 57.8588669,65.0958762 57.8588669,66.5357143 C57.8588669,67.9755524 59.0292926,69.1428571 60.4729802,69.1428571 L70.9294335,69.1428571 C72.3708555,69.1428571 73.5435468,70.3124214 73.5435468,71.75 C73.5435468,73.1875786 72.3708555,74.3571429 70.9294335,74.3571429 C69.8212237,74.3571429 61.58119,74.3571429 60.4729802,74.3571429 C59.0292926,74.3571429 57.8588669,75.5244476 57.8588669,76.9642857 C57.8588669,78.4041238 59.0292926,79.5714286 60.4729802,79.5714286 L65.7012068,79.5714286 C67.1426289,79.5714286 68.3153202,80.7409929 68.3153202,82.1785714 C68.3153202,83.61615 67.1426289,84.7857143 65.7012068,84.7857143 L50.3384115,84.7857143 L31.7177339,80.1430881 L31.7177339,47.6558286 C35.2446955,46.6458214 42.725765,44.3843857 47.1089359,42.1928214 C53.1126828,39.1909571 56.7889975,29.6960905 57.6586258,22.6402929 C58.7706696,23.0459643 59.7744892,23.7304262 60.5662169,24.6464024 C61.9088255,26.1997381 62.5044948,28.2562524 62.2005606,30.2886071 C60.9623422,38.5713262 59.4090361,41.9712143 58.1349173,44.5124833 C57.7297297,45.3206976 57.7729497,46.2804738 58.2492412,47.0490595 C58.7255326,47.8176452 59.5669286,48.2857143 60.4729802,48.2857143 L76.1576601,48.2857143 C77.5990822,48.2857143 78.7717734,49.4552786 78.7717734,50.8928571 C78.7717734,52.3304357 77.5990822,53.5 76.1576601,53.5 L60.4729802,53.5 C59.0292926,53.5 57.8588669,54.6673048 57.8588669,56.1071429 C57.8588669,57.546981 59.0292926,58.7142857 60.4729802,58.7142857 Z" id="Shape"></path>
                            <path d="M59,0 C57.3432,0 56,1.19154839 56,2.66129032 L56,8.33870968 C56,9.80845161 57.3432,11 59,11 C60.6568,11 62,9.80845161 62,8.33870968 L62,2.66129032 C62,1.19154839 60.6568,0 59,0 Z" id="Shape"></path>
                            <path d="M44.2279011,13.5 L40.5,9.77209888 C39.4707106,8.74263371 37.8015641,8.74263371 36.7720989,9.77209888 C35.7426337,10.8015641 35.7426337,12.4705348 36.7720989,13.5 L40.5,17.2279011 C41.5292894,18.2573663 43.1986117,18.2573663 44.2279011,17.2279011 C45.2573663,16.1984359 45.2573663,14.5294652 44.2279011,13.5 Z" id="Shape"></path>
                            <path d="M34.5,29 L29.5,29 C28.1193333,29 27,30.3432 27,32 C27,33.6568 28.1193333,35 29.5,35 L34.5,35 C35.8806667,35 37,33.6568 37,32 C37,30.3432 35.8806667,29 34.5,29 Z" id="Shape"></path>
                            <path d="M87.5,29 L82.5,29 C81.1193333,29 80,30.3432 80,32 C80,33.6568 81.1193333,35 82.5,35 L87.5,35 C88.8806667,35 90,33.6568 90,32 C90,30.3432 88.8806667,29 87.5,29 Z" id="Shape"></path>
                            <path d="M80.2279011,9.77209888 C79.1986117,8.74263371 77.5294652,8.74263371 76.5,9.77209888 L72.7720989,13.5 C71.7426337,14.5294652 71.7426337,16.1984359 72.7720989,17.2279011 C73.8013883,18.2573663 75.4707106,18.2573663 76.5,17.2279011 L80.2279011,13.5 C81.2573663,12.4705348 81.2573663,10.8015641 80.2279011,9.77209888 Z" id="Shape"></path>
                        </g>
                    </g>
                </g>
            </g>
        </g>
    </g>
</svg>