<?xml version="1.0" encoding="UTF-8"?>
<svg width="25px" height="25px" viewBox="0 0 25 25" version="1.1" xmlns="http://www.w3.org/2000/svg" xmlns:xlink="http://www.w3.org/1999/xlink">
    <!-- Generator: Sketch 51.1 (57501) - http://www.bohemiancoding.com/sketch -->
    <title>icon_whats</title>
    <desc>Created with Sketch.</desc>
    <defs></defs>
    <g id="Page-1" stroke="none" stroke-width="1" fill="none" fill-rule="evenodd">
        <g id="Desktop-HD" transform="translate(-644.000000, -2471.000000)" fill="#FFFFFF" fill-rule="nonzero">
            <g id="Contato" transform="translate(157.000000, 2291.000000)">
                <g id="BTN---WhatsApp" transform="translate(380.000000, 164.000000)">
                    <g id="icon_whats" transform="translate(107.000000, 16.000000)">
                        <path d="M25,12.1780556 C25,18.9038889 19.5058333,24.3561111 12.7272222,24.3561111 C10.5752778,24.3561111 8.55361111,23.8061111 6.79472222,22.8408333 L0,25 L2.21527778,18.4661111 C1.09777778,16.6311111 0.454166667,14.4788889 0.454166667,12.1780556 C0.454166667,5.45222222 5.94888889,0 12.7272222,0 C19.5063889,0 25,5.45222222 25,12.1780556 Z M12.7272222,1.93944444 C7.03722222,1.93944444 2.40888889,6.5325 2.40888889,12.1780556 C2.40888889,14.4183333 3.13916667,16.4930556 4.37444444,18.1808333 L3.08527778,21.9833333 L7.05055556,20.7230556 C8.67972222,21.7927778 10.6313889,22.4166667 12.7275,22.4166667 C18.4166667,22.4166667 23.0458333,17.8241667 23.0458333,12.1786111 C23.0458333,6.53305556 18.4169444,1.93944444 12.7272222,1.93944444 Z M18.9247222,14.9827778 C18.8488889,14.8586111 18.6486111,14.7836111 18.3480556,14.6344444 C18.0469444,14.4852778 16.5675,13.7627778 16.2925,13.6636111 C16.0166667,13.5641667 15.8155556,13.5141667 15.6152778,13.8127778 C15.415,14.1116667 14.8383333,14.7836111 14.6625,14.9827778 C14.4869444,15.1825 14.3116667,15.2075 14.0105556,15.0580556 C13.71,14.9088889 12.7408333,14.5933333 11.5916667,13.5766667 C10.6975,12.7855556 10.0936111,11.8088889 9.91805556,11.5097222 C9.74277778,11.2111111 9.89972222,11.0497222 10.05,10.9011111 C10.1855556,10.7672222 10.3511111,10.5525 10.5013889,10.3783333 C10.6522222,10.2038889 10.7022222,10.0797222 10.8019444,9.88027778 C10.9027778,9.68111111 10.8525,9.50694444 10.7769444,9.35722222 C10.7019444,9.20805556 10.0997222,7.73916667 9.84916667,7.14138889 C9.59861111,6.54416667 9.34833333,6.64361111 9.1725,6.64361111 C8.99722222,6.64361111 8.79638889,6.61861111 8.59583333,6.61861111 C8.39527778,6.61861111 8.06916667,6.69333333 7.79333333,6.99194444 C7.51777778,7.29083333 6.74083333,8.01305556 6.74083333,9.48166667 C6.74083333,10.9505556 7.81833333,12.3697222 7.96916667,12.5686111 C8.11944444,12.7675 10.0497222,15.8797222 13.1080556,17.075 C16.1666667,18.2697222 16.1666667,17.8711111 16.7183333,17.8211111 C17.2694444,17.7713889 18.4977778,17.0991667 18.7494444,16.4025 C18.9994444,15.7047222 18.9994444,15.1072222 18.9247222,14.9827778 Z" id="WhatsApp"></path>
                    </g>
                </g>
            </g>
        </g>
    </g>
</svg>