<?xml version="1.0" encoding="UTF-8"?>
<svg width="85px" height="85px" viewBox="0 0 85 85" version="1.1" xmlns="http://www.w3.org/2000/svg" xmlns:xlink="http://www.w3.org/1999/xlink">
    <!-- Generator: Sketch Beta 51.3 (57541) - http://www.bohemiancoding.com/sketch -->
    <title>icon_home</title>
    <desc>Created with Sketch Beta.</desc>
    <defs></defs>
    <g id="Page-1" stroke="none" stroke-width="1" fill="none" fill-rule="evenodd">
        <g id="Desktop-HD" transform="translate(-397.000000, -1300.000000)" fill="#FFFFFF" fill-rule="nonzero">
            <g id="Vantagens" transform="translate(0.000000, 1161.000000)">
                <g id="Row" transform="translate(319.000000, 125.000000)">
                    <g id="Item-1" transform="translate(0.000000, 14.000000)">
                        <g id="icon_home" transform="translate(78.000000, 0.000000)">
                            <path d="M84.977568,36.7687691 C84.8246672,34.7780445 83.9059341,32.9666645 82.3908712,31.6680771 L75.0386826,25.3644481 L75.0386826,7.45207854 C75.0386826,6.07643937 73.9237185,4.96134799 72.5486072,4.96134799 L62.5879737,4.96134799 C61.2126964,4.96134799 60.1311015,6.07660543 60.1311015,7.45207854 L60.1311015,12.5547633 L47.528654,1.81152621 C44.7113609,-0.602816834 40.6218865,-0.602484714 37.8135583,1.80438564 L2.61100799,31.667745 C-0.502291788,34.3359934 -0.906208941,39.0446183 1.80317369,42.208057 C3.86824786,44.6101116 7.1761185,45.3759793 9.99606784,44.3846024 L9.99606784,82.5092695 C9.99606784,83.8849086 11.0778287,85 12.45294,85 L72.5484412,85 C73.9237185,85 75.0385166,83.8847426 75.0385166,82.5092695 L75.0385166,44.3851006 C77.9494427,45.4146712 81.1875866,44.5518246 83.2010298,42.2047358 C84.4992756,40.6889422 85.1303028,38.7583313 84.977568,36.7687691 Z M65.0780491,9.94280908 L70.091569,9.94280908 L70.091569,21.0943871 L65.0780491,16.8244921 L65.0780491,9.94280908 Z M52.6605434,80.0185389 L32.374207,80.0185389 L32.374207,60.0588184 L52.6605434,60.0588184 L52.6605434,80.0185389 Z M70.0917351,80.0185389 L57.6076569,80.0185389 L57.6076569,57.6012998 C57.6076569,56.2256606 56.4926929,55.1105693 55.1175816,55.1105693 L29.8839656,55.1105693 C28.5086883,55.1105693 27.4270935,56.2258267 27.4270935,57.6012998 L27.4270935,80.0185389 L14.9431814,80.0185389 L14.9431814,40.8020289 L42.6584059,17.2858062 L70.0917351,40.7787805 L70.0917351,80.0185389 Z M79.4201793,38.9619205 C78.5373057,39.991159 76.9677896,40.1421073 75.9076108,39.232764 L44.2871898,12.1211812 C43.3583297,11.3245925 41.988697,11.3212713 41.0558525,12.1128782 C40.3819932,12.6844559 9.2270813,39.1195113 9.09526453,39.2314356 C8.05235143,40.1240068 6.47519856,40.002285 5.582198,38.963249 C4.68820134,37.9195633 4.80906105,36.3438222 5.84267724,35.4577272 L41.0453935,5.59420179 C41.9850446,4.78914401 43.3487008,4.78897795 44.2876878,5.59386967 L79.1500711,35.4505866 C80.1923201,36.3439882 80.3130138,37.9198955 79.4201793,38.9619205 Z" id="Shape"></path>
                            <path d="M49.5369887,30 L34.430169,30 C33.0698392,30 32,31.1193893 32,32.4999583 L32,47.5000417 C32,48.8807774 33.0700034,50 34.430169,50 L49.5369887,50 C50.8973184,50 52,48.8806107 52,47.5000417 L52,32.4999583 C52.0001642,31.1192226 50.8973184,30 49.5369887,30 Z M47.1068197,45.00025 L36.8931803,45.00025 L36.8931803,35.0000833 L47.1068197,35.0000833 L47.1068197,45.00025 Z" id="Shape"></path>
                            <circle id="Oval" cx="45.5" cy="67.5" r="2.5"></circle>
                        </g>
                    </g>
                </g>
            </g>
        </g>
    </g>
</svg>