<?xml version="1.0" encoding="UTF-8"?>
<svg width="87px" height="87px" viewBox="0 0 87 87" version="1.1" xmlns="http://www.w3.org/2000/svg" xmlns:xlink="http://www.w3.org/1999/xlink">
    <!-- Generator: Sketch Beta 51.3 (57541) - http://www.bohemiancoding.com/sketch -->
    <title>icon_bank</title>
    <desc>Created with Sketch Beta.</desc>
    <defs></defs>
    <g id="Page-1" stroke="none" stroke-width="1" fill="none" fill-rule="evenodd">
        <g id="Desktop-HD" transform="translate(-964.000000, -1471.000000)" fill="#FFFFFF" fill-rule="nonzero">
            <g id="Vantagens" transform="translate(0.000000, 1161.000000)">
                <g id="Row" transform="translate(319.000000, 310.000000)">
                    <g id="Item-3" transform="translate(570.000000, 0.000000)">
                        <g id="icon_bank" transform="translate(75.000000, 0.000000)">
                            <path d="M83.0462963,79 L3.95555556,79 C1.77037037,79 0,80.7902622 0,83.0018727 C0,85.2097378 1.77037037,87 3.95555556,87 L83.0444444,87 C85.2296296,87 87,85.2097378 87,83.0018727 C86.9981481,80.7902622 85.2277778,79 83.0462963,79 Z" id="Shape"></path>
                            <path d="M8.9496662,68.1633043 C6.7677345,68.1633043 5,69.9166114 5,72.0807352 C5,74.2448589 6.7677345,76 8.9496662,76 L78.0503338,76 C80.2322655,76 82,74.2448589 82,72.0807352 C82,69.9166114 80.2322655,68.1633043 78.0503338,68.1633043 L77.0647663,68.1633043 L77.0647663,32.9137628 L78.0503338,32.9137628 C79.1431487,32.9137628 80.0233178,32.0371093 80.0233178,30.9568814 C80.0233178,29.8766535 79.1394506,29 78.0503338,29 L8.9496662,29 C7.85870035,29 6.9766822,29.8766535 6.9766822,30.9568814 C6.9766822,32.0371093 7.86054945,32.9137628 8.9496662,32.9137628 L9.93708275,32.9137628 L9.93708275,68.1614703 L8.9496662,68.1614703 L8.9496662,68.1633043 Z M69.1654339,32.9137628 L69.1654339,68.1614703 L57.3201335,68.1614703 L57.3201335,32.9137628 L69.1654339,32.9137628 Z M49.4208011,32.9137628 L49.4208011,68.1614703 L37.5755007,68.1614703 L37.5755007,32.9137628 L49.4208011,32.9137628 Z M17.832717,32.9137628 L29.6780174,32.9137628 L29.6780174,68.1614703 L17.832717,68.1614703 L17.832717,32.9137628 Z" id="Shape"></path>
                            <path d="M3.95385989,26 L83.0073437,26 C83.0203009,26 83.0351091,26 83.0462152,26 C85.2322732,26 87,24.2091574 87,21.9987031 C87,20.2415793 85.8819822,18.7523326 84.328974,18.2128319 L45.1057999,0.351237437 C44.0747801,-0.117079146 42.8956786,-0.117079146 41.8628078,0.351237437 L2.33236388,18.3514536 C0.631273879,19.1269858 -0.303492659,20.9965056 0.0889241847,22.8397997 C0.479490006,24.6830938 2.08987988,26 3.95385989,26 Z" id="Shape"></path>
                        </g>
                    </g>
                </g>
            </g>
        </g>
    </g>
</svg>