<?xml version="1.0" encoding="UTF-8"?>
<svg width="25px" height="25px" viewBox="0 0 25 25" version="1.1" xmlns="http://www.w3.org/2000/svg" xmlns:xlink="http://www.w3.org/1999/xlink">
    <!-- Generator: Sketch 51.1 (57501) - http://www.bohemiancoding.com/sketch -->
    <title>icon_phone</title>
    <desc>Created with Sketch.</desc>
    <defs></defs>
    <g id="Page-1" stroke="none" stroke-width="1" fill="none" fill-rule="evenodd">
        <g id="Desktop-HD" transform="translate(-240.000000, -2470.000000)" fill="#FFFFFF" fill-rule="nonzero">
            <g id="Contato" transform="translate(157.000000, 2291.000000)">
                <g id="BTN---Ligue-agora" transform="translate(0.000000, 164.000000)">
                    <g id="icon_phone" transform="translate(83.000000, 15.000000)">
                        <path d="M24.9880838,19.7298387 C25.0410585,20.1359547 24.9173787,20.4890615 24.6175632,20.7891589 L21.0976178,24.2847858 C20.9388233,24.4613391 20.7315514,24.6115393 20.4757158,24.7349969 C20.2198802,24.8586275 19.9684987,24.9380765 19.7215715,24.9733439 C19.7039277,24.9733439 19.6508664,24.9778876 19.562604,24.9867152 C19.4745145,24.9954996 19.3598296,25 19.2186789,25 C18.8833595,25 18.3407683,24.9426202 17.5909052,24.8278172 C16.8410422,24.7130142 15.9236059,24.4304856 14.8385964,23.980361 C13.7533275,23.5301499 12.5227131,22.8547468 11.1465371,21.9544112 C9.77036109,21.0541188 8.30587939,19.8181587 6.75322176,18.2467905 C5.51815319,17.0285722 4.49481066,15.86332 3.68319417,14.7510771 C2.87157768,13.6387476 2.21875572,12.6103242 1.72472829,11.6657637 C1.23065761,10.7212032 0.860137041,9.86491937 0.613123327,9.09691222 C0.366109613,8.32890507 0.198493163,7.66682995 0.11027398,7.11068684 C0.0220547959,6.55454374 -0.0132328776,6.11757416 0.00441095919,5.7997781 C0.0220547959,5.48198204 0.0308767143,5.30542867 0.0308767143,5.270118 C0.0661643878,5.02294328 0.145561653,4.77135474 0.26906851,4.51535235 C0.392575368,4.25934997 0.54254798,4.05189977 0.718986347,3.89300174 L4.23893178,0.37076207 C4.48594549,0.123587357 4.76824688,0 5.08583594,0 C5.31520582,0 5.51810994,0.0662075125 5.69454831,0.198622538 C5.87098668,0.331037563 6.02095929,0.494349427 6.14446615,0.68855813 L8.97630195,6.06460815 C9.13509648,6.34709353 9.17920607,6.65606193 9.10863072,6.99151332 C9.03805537,7.32696472 8.88808276,7.60945011 8.65871288,7.83896948 L7.36189088,9.13663673 C7.32660321,9.1719474 7.2957265,9.22932725 7.26926074,9.30877626 C7.24279498,9.38822528 7.22956211,9.45443279 7.22956211,9.5073988 C7.30013745,9.87816087 7.45893198,10.3018889 7.7059457,10.778583 C7.91767174,11.2023111 8.24408272,11.7187297 8.68517864,12.3278388 C9.12627456,12.9369479 9.75263076,13.6387043 10.5642473,14.4331945 C11.3582199,15.2454265 12.0639734,15.8765182 12.6815077,16.3268159 C13.2989122,16.7768539 13.8151674,17.1080212 14.2297976,17.3198853 C14.6444277,17.5317493 14.9620168,17.6597505 15.1825215,17.703759 L15.513257,17.7700098 C15.5485446,17.7700098 15.6060168,17.756725 15.6853276,17.7302853 C15.7647249,17.703759 15.8220674,17.6729055 15.8573983,17.6375515 L17.3659031,16.1015372 C17.6836651,15.8190951 18.0540127,15.6778524 18.477508,15.6778524 C18.7775397,15.6778524 19.0156018,15.7307752 19.1920402,15.8367504 L19.2184627,15.8367504 L24.3263102,18.855813 C24.6969605,19.0855055 24.9174652,19.376732 24.9880838,19.7298387 Z" id="Shape"></path>
                    </g>
                </g>
            </g>
        </g>
    </g>
</svg>