<?xml version="1.0" encoding="UTF-8"?>
<svg width="564px" height="153px" viewBox="0 0 564 153" version="1.1" xmlns="http://www.w3.org/2000/svg" xmlns:xlink="http://www.w3.org/1999/xlink">
    <!-- Generator: Sketch 51.1 (57501) - http://www.bohemiancoding.com/sketch -->
    <title>Linkar.me</title>
    <desc>Created with Sketch.</desc>
    <defs></defs>
    <g id="Page-1" stroke="none" stroke-width="1" fill="none" fill-rule="evenodd">
        <g id="Apple-TV" transform="translate(-688.000000, -455.000000)" fill="#9B9B9B">
            <g id="Logo" transform="translate(679.000000, 394.000000)">
                <path d="M7.04883688,189.321996 C344.390557,183.811441 524.382894,182.046665 547.025849,184.027666 C569.668803,186.008668 569.109871,192.397292 545.349052,203.193537 L7.04883688,189.321996 Z M22.0095217,171.145109 C17.6015217,171.905109 15.9295217,170.689109 11.3695217,167.497109 C4.83352167,162.937109 4.83352167,158.833109 9.08952167,149.105109 C16.0815217,132.993109 51.8015217,89.065109 67.9135217,60.793109 C68.6735217,59.577109 69.7375217,58.969109 71.4095217,59.881109 C74.1455217,61.097109 77.9455217,64.289109 80.3775217,67.481109 C82.6575217,70.673109 82.6575217,74.473109 77.0335217,84.353109 C67.9135217,100.465109 39.7935217,134.817109 31.4335217,153.817109 C50.8895217,151.081109 71.4095217,148.801109 77.0335217,148.801109 C78.2495217,148.801109 78.4015217,149.257109 78.0975217,150.321109 C77.0335217,154.121109 75.8175217,156.401109 69.2815217,158.529109 C51.4975217,164.153109 31.5855217,169.625109 22.0095217,171.145109 Z M341.396433,136.07734 C341.776795,135.563781 342.170397,135.042371 342.577522,134.513109 L343.033522,133.905109 C343.10302,133.815755 343.169275,133.731588 343.232542,133.65244 C349.207001,125.766715 358.467598,112.618428 360.665522,108.369109 C361.121522,107.305109 362.337522,107.305109 363.249522,107.609109 C365.833522,108.521109 367.657522,108.673109 369.785522,109.889109 C371.609522,110.953109 372.217522,112.777109 372.217522,114.905109 C372.217522,116.577109 371.913522,118.553109 371.305522,120.681109 C379.969522,112.777109 387.721522,107.457109 394.561522,104.265109 C397.905522,102.593109 400.033522,101.833109 401.249522,101.833109 C402.465522,101.833109 402.769522,102.593109 403.833522,103.505109 C404.289522,103.961109 405.201522,104.569109 405.201522,104.873109 C405.201522,105.177109 404.897522,105.481109 404.441522,105.785109 C389.089522,115.361109 370.849522,132.841109 356.257522,155.033109 C350.177522,164.153109 348.809522,165.369109 347.137522,165.369109 C346.073522,165.369109 344.857522,164.761109 340.601522,163.545109 C336.041522,162.329109 332.089522,160.961109 332.089522,155.945109 C332.089522,154.841988 332.270389,153.567519 332.660711,152.121702 C325.232275,159.22768 315.848228,165.521109 306.857522,165.521109 C300.017522,165.521109 297.433522,159.897109 298.801522,151.233109 C292.569522,158.377109 287.097522,163.089109 282.841522,164.913109 C279.041522,166.585109 275.697522,166.433109 269.769522,161.265109 C266.729522,159.593109 264.905522,157.617109 263.081522,154.577109 C259.585522,148.801109 260.801522,139.985109 269.769522,129.345109 C277.217522,120.377109 287.553522,113.081109 298.041522,109.737109 C301.385522,108.673109 304.121522,108.369109 307.465522,109.129109 C311.113522,110.041109 315.065522,113.081109 317.497522,116.425109 C318.713522,116.121109 320.385522,116.121109 321.905522,117.033109 C324.945522,118.705109 330.113522,123.113109 332.089522,125.697109 C332.545522,126.457109 332.545522,127.977109 331.481522,129.193109 C325.553522,136.185109 320.841522,145.305109 318.409522,154.121109 C324.982013,152.952666 331.83519,148.55633 341.396433,136.07734 Z M194.754569,152.10913 C187.850335,159.097281 179.452342,165.217109 172.033522,165.217109 C168.385522,165.217109 165.193522,163.393109 162.305522,160.201109 C158.657522,156.097109 157.137522,151.841109 159.569522,146.521109 C163.369522,138.465109 170.969522,131.473109 175.681522,124.329109 C169.449522,128.585109 161.089522,135.273109 153.185522,142.113109 C145.433522,153.665109 140.417522,160.961109 136.769522,164.609109 C134.945522,166.433109 134.033522,167.041109 132.969522,167.041109 C130.385522,167.041109 127.649522,165.521109 125.217522,163.545109 C122.481522,161.417109 120.353522,158.529109 120.353522,154.881109 C120.353522,154.498171 120.387936,154.091143 120.454971,153.66162 C113.166119,160.913727 104.784739,166.889109 98.3135217,166.889109 C93.9055217,166.889109 91.7775217,165.369109 87.5215217,161.873109 C80.6815217,155.641109 80.3775217,152.145109 91.7775217,134.513109 C98.1615217,124.785109 105.761522,114.297109 109.105522,110.497109 C109.713522,109.737109 110.321522,109.433109 111.537522,109.433109 C115.337522,109.433109 124.913522,110.193109 124.913522,115.969109 C124.913522,119.009109 121.873522,124.329109 116.553522,131.777109 C108.193522,143.633109 103.177522,151.689109 101.353522,157.161109 C108.352853,156.565421 117.686683,152.322078 130.498625,135.568085 C130.761533,135.217904 131.0279,134.866184 131.297522,134.513109 L131.753522,133.905109 C131.80664,133.836814 131.857865,133.771549 131.907308,133.70924 C141.169794,121.490985 147.907709,112.246469 149.841522,108.825109 C150.449522,107.761109 151.057522,107.457109 151.969522,107.457109 C155.161522,107.457109 160.633522,110.041109 164.433522,113.689109 C166.865522,116.121109 168.081522,118.401109 166.713522,121.745109 C174.769522,117.489109 181.457522,114.601109 184.801522,114.601109 C187.385522,114.601109 189.817522,115.665109 191.945522,117.641109 C195.441522,120.833109 195.593522,123.569109 193.161522,128.737109 C189.513522,136.641109 179.937522,148.649109 178.113522,155.793109 C185.257522,154.121109 193.769522,148.497109 204.257522,134.513109 C219.913522,110.345109 244.689522,71.737109 251.681522,60.337109 C252.897522,58.361109 253.505522,58.209109 254.873522,58.513109 C258.065522,59.425109 262.169522,60.793109 264.449522,62.921109 C267.641522,65.961109 265.969522,72.649109 262.169522,79.337109 C256.089522,89.977109 245.601522,106.089109 229.033522,131.777109 C243.777522,120.833109 253.961522,115.817109 268.097522,100.921109 C269.313522,99.553109 270.529522,101.377109 270.529522,104.113109 C270.529522,107.761109 268.857522,109.889109 265.361522,113.233109 C260.801522,117.641109 255.785522,121.593109 250.465522,125.393109 C246.817522,137.705109 246.209522,146.977109 248.185522,151.689109 C250.009522,151.385109 253.049522,149.409109 255.177522,146.977109 C255.633522,146.369109 256.089522,146.521109 256.241522,146.977109 C256.393522,147.433109 256.697522,148.649109 256.697522,149.257109 C256.697522,150.017109 256.545522,150.929109 255.633522,152.449109 C252.593522,157.161109 244.385522,164.457109 238.305522,164.457109 C230.401522,164.457109 227.665522,158.377109 228.273522,142.569109 C225.081522,145.457109 222.041522,148.497109 219.153522,151.841109 C208.057522,164.913109 205.929522,164.153109 197.417522,163.697109 C193.274762,163.563472 190.424428,162.489889 194.754569,152.10913 Z M121.721522,97.577109 C121.113522,97.121109 121.113522,96.209109 121.721522,94.841109 C124.001522,89.977109 127.497522,85.113109 130.537522,81.769109 C132.817522,79.185109 134.185522,78.273109 135.401522,78.577109 C138.593522,79.489109 142.393522,81.465109 144.065522,82.985109 C145.585522,84.201109 146.345522,85.113109 145.129522,86.329109 C141.177522,90.281109 136.769522,94.385109 134.945522,96.209109 C132.513522,98.945109 130.385522,99.249109 128.105522,99.249109 C125.977522,99.249109 122.785522,98.337109 121.721522,97.577109 Z M280.865522,155.033109 C288.617522,151.689109 296.825522,145.001109 304.121522,135.425109 C306.857522,130.257109 310.049522,124.937109 312.785522,120.985109 C295.761522,126.457109 280.561522,143.481109 280.865522,155.033109 Z M516.162901,143.699636 C516.965398,139.228102 519.318681,134.01964 523.913522,127.977109 C531.817522,117.641109 545.649522,108.977109 555.529522,108.977109 C558.569522,108.977109 561.001522,110.041109 563.281522,111.561109 C565.561522,113.081109 566.777522,113.841109 568.145522,115.817109 C571.033522,118.097109 573.313522,121.593109 573.313522,124.785109 C573.313522,129.345109 570.577522,133.753109 560.393522,140.289109 C555.073522,143.633109 546.865522,147.281109 536.073522,150.929109 C535.465522,153.817109 535.465522,156.249109 536.529522,157.769109 C537.897522,158.225109 539.417522,158.377109 541.089522,158.377109 C549.753522,158.377109 558.873522,155.945109 569.665522,147.129109 C570.273522,146.673109 570.577522,146.521109 570.881522,146.521109 C571.489522,146.521109 571.641522,147.129109 571.641522,148.041109 C571.641522,149.561109 571.033522,152.297109 569.665522,153.665109 C561.001522,163.089109 548.689522,168.409109 537.137522,168.409109 C531.361522,168.409109 526.649522,166.281109 520.113522,158.529109 C518.255476,156.352542 516.805333,153.749531 516.177527,150.661798 C508.712327,159.240237 500.663291,164.761109 493.817522,164.761109 C491.081522,164.761109 487.433522,164.001109 485.153522,162.633109 C480.593522,159.897109 480.137522,157.465109 480.897522,152.753109 C481.809522,148.497109 484.089522,141.961109 486.369522,136.945109 C481.809522,140.137109 476.641522,145.913109 470.409522,155.185109 C464.937522,163.241109 463.417522,165.521109 461.137522,165.521109 C458.857522,165.521109 457.337522,164.001109 453.841522,162.633109 C448.217522,160.505109 447.913522,157.009109 449.585522,153.057109 C452.473522,146.673109 457.793522,138.769109 463.417522,130.713109 C466.761522,126.001109 468.737522,122.809109 469.649522,120.073109 C464.633522,123.569109 457.641522,129.649109 450.345522,136.793109 C444.721522,145.153109 438.945522,152.905109 433.321522,162.177109 C431.193522,165.673109 428.305522,167.953109 426.177522,167.345109 C421.769522,166.129109 414.777522,162.329109 414.017522,157.161109 C413.257522,152.449109 417.665522,144.849109 425.417522,134.513109 C436.513522,119.769109 441.377522,112.929109 443.201522,109.433109 C443.961522,108.065109 444.721522,107.153109 445.785522,107.153109 C446.849522,107.153109 448.217522,108.065109 451.257522,108.977109 C458.857522,111.257109 461.137522,112.929109 459.769522,118.553109 C467.977522,113.233109 474.361522,110.497109 477.401522,110.497109 C479.985522,110.497109 481.961522,111.105109 485.305522,113.385109 C488.345522,115.513109 489.409522,117.793109 488.345522,122.049109 C487.585522,124.633109 486.369522,127.825109 484.849522,131.169109 C496.097522,121.593109 498.833522,119.921109 501.873522,119.921109 C504.457522,119.921109 506.281522,120.529109 507.953522,121.441109 C510.689522,122.961109 512.361522,125.241109 512.209522,127.825109 C511.753522,135.729109 503.241522,144.545109 498.681522,155.641109 C504.488305,154.730241 509.527498,151.346024 516.162901,143.699636 Z M386.657522,166.281109 C384.377522,166.281109 380.881522,165.217109 379.057522,164.001109 C378.145522,163.241109 377.841522,162.329109 378.449522,161.113109 C380.729522,156.097109 384.833522,149.257109 387.113522,145.001109 C388.177522,143.481109 388.785522,143.025109 390.153522,143.329109 C392.889522,143.937109 396.841522,145.457109 399.121522,146.673109 C400.945522,147.737109 402.161522,149.257109 401.249522,151.841109 C399.881522,155.945109 394.865522,162.481109 393.345522,163.849109 C390.761522,165.825109 388.937522,166.281109 386.657522,166.281109 Z M556.137522,134.361109 C561.761522,130.257109 565.409522,125.241109 563.889522,119.921109 C555.529522,121.745109 544.281522,132.993109 538.961522,143.481109 C545.801522,140.593109 552.033522,137.401109 556.137522,134.361109 Z" id="Linkar.me" transform="translate(289.725272, 130.792718) rotate(-5.000000) translate(-289.725272, -130.792718) "></path>
            </g>
        </g>
    </g>
</svg>